<?xml version="1.0" encoding="utf-8"?>
<!DOCTYPE svg PUBLIC "-//W3C//DTD SVG 1.1//EN" "http://www.w3.org/Graphics/SVG/1.1/DTD/svg11.dtd">
<svg version="1.1" xmlns="http://www.w3.org/2000/svg" viewBox="0 0 100 100">
<path fill="#8FBE00" d="M62.437,19.527c4.554,0,8.239-3.7,8.239-8.253s-3.686-8.245-8.24-8.245s-8.255,3.69-8.255,8.243
	C54.182,15.826,57.882,19.527,62.437,19.527z"/>
<path fill="#8FBE00" d="M81.331,36.63l-3.874-3.498L67.022,22.701c-0.975-0.937-2.289-1.528-3.764-1.528l-15.674-0.031l-28.903-0.47
	c-1.139-0.159-2.33,0.156-3.271,0.964c-1.738,1.493-1.941,4.106-0.442,5.851c0.841,0.979,2.034,1.479,3.238,1.441l19.599,0.084
	l10.53,0.013L32.701,47.596l-0.049-0.018l-8.48,9.966c-0.295,0.327-0.559,0.692-0.771,1.104c-1.378,2.598-0.933,5.868,1.681,7.232
	c2.277,1.207,5.574,0.507,7.148-1.413L42.909,51.76l0.656-0.821l1.188,0.844l-0.415,0.473L14.892,87.929
	c-0.316,0.31-0.58,0.678-0.809,1.081c-1.453,2.563-0.554,5.816,2.011,7.27c2.235,1.266,5.01,0.74,6.644-1.133l33.78-39.671
	l0.025,0.007L70.515,38.24l2.317,1.879l-9.528,11.924c-0.591,0.773-0.921,1.752-0.869,2.8c0.114,2.37,2.129,4.187,4.488,4.072
	c1.035-0.05,1.954-0.448,2.663-1.092l11.392-14.184C84.651,39.586,81.331,36.63,81.331,36.63z"/>
</svg>
